<svg width="16" height="16" viewBox="0 0 16 16" fill="none" xmlns="http://www.w3.org/2000/svg">
<path d="M8 14.6666C7.07778 14.6666 6.21111 14.4915 5.4 14.1413C4.58889 13.7911 3.88334 13.3162 3.28334 12.7166C2.68334 12.1166 2.20845 11.4111 1.85867 10.6C1.50889 9.78887 1.33378 8.9222 1.33334 7.99998C1.33334 7.07776 1.50845 6.21109 1.85867 5.39998C2.20889 4.58887 2.68378 3.88331 3.28334 3.28331C3.88334 2.68331 4.58889 2.20842 5.4 1.85865C6.21111 1.50887 7.07778 1.33376 8 1.33331C8.92222 1.33331 9.78889 1.50842 10.6 1.85865C11.4111 2.20887 12.1167 2.68376 12.7167 3.28331C13.3167 3.88331 13.7918 4.58887 14.142 5.39998C14.4922 6.21109 14.6671 7.07776 14.6667 7.99998C14.6667 8.9222 14.4916 9.78887 14.1413 10.6C13.7911 11.4111 13.3162 12.1166 12.7167 12.7166C12.1167 13.3166 11.4111 13.7918 10.6 14.142C9.78889 14.4922 8.92222 14.6671 8 14.6666ZM8 13.3333C9.48889 13.3333 10.75 12.8166 11.7833 11.7833C12.8167 10.75 13.3333 9.48887 13.3333 7.99998C13.3333 6.51109 12.8167 5.24998 11.7833 4.21665C10.75 3.18331 9.48889 2.66665 8 2.66665C6.51111 2.66665 5.25 3.18331 4.21667 4.21665C3.18334 5.24998 2.66667 6.51109 2.66667 7.99998C2.66667 9.48887 3.18334 10.75 4.21667 11.7833C5.25 12.8166 6.51111 13.3333 8 13.3333Z" fill="#EB7272"/>
</svg>
