<svg width="16" height="16" viewBox="0 0 16 16" fill="none" xmlns="http://www.w3.org/2000/svg">
<g id="mingcute:delete-2-line" clip-path="url(#clip0_1104_117)">
<g id="Group">
<path id="Vector" d="M9.52 1.33331C9.79984 1.33339 10.0726 1.4215 10.2995 1.58518C10.5265 1.74887 10.6962 1.97981 10.7847 2.24531L11.1467 3.33331H13.3333C13.5101 3.33331 13.6797 3.40355 13.8047 3.52858C13.9298 3.6536 14 3.82317 14 3.99998C14 4.17679 13.9298 4.34636 13.8047 4.47138C13.6797 4.59641 13.5101 4.66665 13.3333 4.66665L13.3313 4.71398L12.7533 12.8093C12.7173 13.3137 12.4915 13.7857 12.1214 14.1304C11.7513 14.475 11.2644 14.6666 10.7587 14.6666H5.24133C4.73564 14.6666 4.24874 14.475 3.87864 14.1304C3.50855 13.7857 3.28274 13.3137 3.24667 12.8093L2.66867 4.71331C2.66746 4.69779 2.66679 4.68222 2.66667 4.66665C2.48986 4.66665 2.32029 4.59641 2.19526 4.47138C2.07024 4.34636 2 4.17679 2 3.99998C2 3.82317 2.07024 3.6536 2.19526 3.52858C2.32029 3.40355 2.48986 3.33331 2.66667 3.33331H4.85333L5.21533 2.24531C5.3038 1.97971 5.47362 1.74868 5.70073 1.58499C5.92784 1.4213 6.20071 1.33325 6.48067 1.33331H9.52ZM11.998 4.66665H4.002L4.57667 12.714C4.58863 12.8821 4.66385 13.0395 4.78717 13.1544C4.9105 13.2693 5.07277 13.3332 5.24133 13.3333H10.7587C10.9272 13.3332 11.0895 13.2693 11.2128 13.1544C11.3362 13.0395 11.4114 12.8821 11.4233 12.714L11.998 4.66665ZM6.66667 6.66665C6.82996 6.66667 6.98756 6.72662 7.10958 6.83512C7.23161 6.94363 7.30956 7.09315 7.32867 7.25531L7.33333 7.33331V10.6666C7.33315 10.8366 7.26808 11 7.15143 11.1236C7.03479 11.2471 6.87536 11.3215 6.70574 11.3314C6.53611 11.3414 6.36908 11.2862 6.23878 11.1771C6.10848 11.0681 6.02474 10.9134 6.00467 10.7446L6 10.6666V7.33331C6 7.1565 6.07024 6.98693 6.19526 6.86191C6.32029 6.73688 6.48986 6.66665 6.66667 6.66665ZM9.33333 6.66665C9.51014 6.66665 9.67971 6.73688 9.80474 6.86191C9.92976 6.98693 10 7.1565 10 7.33331V10.6666C10 10.8435 9.92976 11.013 9.80474 11.1381C9.67971 11.2631 9.51014 11.3333 9.33333 11.3333C9.15652 11.3333 8.98695 11.2631 8.86193 11.1381C8.73691 11.013 8.66667 10.8435 8.66667 10.6666V7.33331C8.66667 7.1565 8.73691 6.98693 8.86193 6.86191C8.98695 6.73688 9.15652 6.66665 9.33333 6.66665ZM9.52 2.66665H6.48L6.258 3.33331H9.742L9.52 2.66665Z" fill="#75808B"/>
</g>
</g>
<defs>
<clipPath id="clip0_1104_117">
<rect width="16" height="16" fill="white"/>
</clipPath>
</defs>
</svg>
