<svg width="512" height="512" viewBox="0 0 512 512" fill="none" xmlns="http://www.w3.org/2000/svg">
<rect width="512" height="512" rx="100" fill="#EB7272"/>
<mask id="mask0_6_3" style="mask-type:luminance" maskUnits="userSpaceOnUse" x="95" y="95" width="322" height="322">
<path d="M256 401.833C275.155 401.858 294.125 398.097 311.822 390.767C329.519 383.436 345.592 372.681 359.119 359.119C372.681 345.592 383.436 329.519 390.767 311.822C398.097 294.126 401.858 275.155 401.833 256C401.858 236.845 398.097 217.875 390.766 200.178C383.436 182.482 372.681 166.408 359.119 152.881C345.592 139.319 329.519 128.564 311.822 121.233C294.125 113.903 275.155 110.142 256 110.167C236.845 110.142 217.875 113.903 200.178 121.234C182.482 128.564 166.408 139.319 152.881 152.881C139.319 166.408 128.564 182.482 121.234 200.178C113.903 217.875 110.142 236.845 110.167 256C110.142 275.155 113.903 294.126 121.233 311.822C128.563 329.519 139.319 345.592 152.881 359.119C166.408 372.681 182.482 383.436 200.178 390.766C217.875 398.097 236.845 401.858 256 401.833Z" fill="white" stroke="white" stroke-width="29.1667" stroke-linejoin="round"/>
<path d="M197.667 256L241.417 299.75L328.917 212.25" stroke="black" stroke-width="29.1667" stroke-linecap="round" stroke-linejoin="round"/>
</mask>
<g mask="url(#mask0_6_3)">
<path d="M81 81H431V431H81V81Z" fill="white"/>
</g>
</svg>
