<svg width="160" height="160" viewBox="0 0 160 160" xmlns="http://www.w3.org/2000/svg">
<path fill-rule="evenodd" clip-rule="evenodd" d="M141.667 93.3333C141.667 94.6594 142.193 95.9312 143.131 96.8689C144.069 97.8065 145.341 98.3333 146.667 98.3333C147.993 98.3333 149.264 97.8065 150.202 96.8689C151.14 95.9312 151.667 94.6594 151.667 93.3333L151.667 89.3065C151.67 78.6848 151.672 71.814 148.933 65.6533C146.192 59.4961 141.098 54.916 133.219 47.8321L105.967 23.3L105.963 23.3037L105.225 22.6393C98.4121 16.5066 94.0035 12.5382 88.5199 10.44C83.036 8.32881 77.0797 8.33051 67.8672 8.33314L66.3949 8.33333C54.1179 8.33316 44.3961 8.33303 36.7933 9.35333C28.9466 10.4067 22.5999 12.62 17.6066 17.6067L17.6133 17.6133C12.0399 23.1733 9.92659 30.4067 9.03326 39.5133C8.90419 40.8332 9.30473 42.1503 10.1468 43.1749C10.9888 44.1995 12.2034 44.8476 13.5233 44.9767C14.8432 45.1057 16.1603 44.7052 17.1848 43.8632C18.2094 43.0211 18.8575 41.8066 18.9866 40.4867C19.7933 32.26 21.5333 27.82 24.6799 24.68L24.6733 24.6733C27.4999 21.86 31.3733 20.1667 38.1199 19.2667C45.0066 18.3467 54.0866 18.3333 66.8666 18.3333C74.4149 18.3333 78.5996 18.3743 81.6666 18.8962V33.6911C81.6665 41.2434 81.6663 47.4156 82.3212 52.2884C83.0056 57.3813 84.4868 61.7979 88.0111 65.3222C91.5354 68.8465 95.952 70.3277 101.045 71.0121C105.918 71.667 112.09 71.6668 119.642 71.6667L140.509 71.6667C141.595 75.3271 141.667 80.1788 141.667 90.42V93.3333ZM91.6666 24.0627C93.6295 25.678 96.0371 27.8274 99.2733 30.74L125.667 54.4933C128.954 57.4527 131.486 59.7496 133.462 61.6667H120C112.002 61.6667 106.505 61.656 102.377 61.1012C98.3913 60.5656 96.4379 59.6068 95.0822 58.2511C93.7265 56.8954 92.7677 54.942 92.2321 50.9565C91.6772 46.8278 91.6666 41.3313 91.6666 33.3333V24.0627Z"/>
<path d="M18.3333 66.6667C18.3333 65.3406 17.8065 64.0688 16.8688 63.1311C15.9311 62.1935 14.6593 61.6667 13.3333 61.6667C12.0072 61.6667 10.7354 62.1935 9.79773 63.1311C8.86004 64.0688 8.33326 65.3406 8.33326 66.6667L8.33326 93.8023C8.33309 106.008 8.33296 115.683 9.35326 123.26C10.4066 131.073 12.6199 137.4 17.6066 142.393L17.6133 142.387C22.5999 147.387 28.9266 149.593 36.7399 150.647C44.3098 151.667 53.992 151.667 66.1971 151.667H93.8023C106.007 151.667 115.683 151.667 123.26 150.647C131.073 149.593 137.4 147.38 142.393 142.393L142.387 142.387C147.96 136.827 150.073 129.593 150.967 120.487C151.031 119.833 150.965 119.173 150.774 118.545C150.583 117.917 150.27 117.332 149.853 116.825C149.436 116.318 148.923 115.898 148.344 115.588C147.765 115.279 147.13 115.087 146.477 115.023C145.823 114.959 145.163 115.025 144.535 115.216C143.907 115.407 143.322 115.72 142.815 116.137C141.79 116.979 141.142 118.193 141.013 119.513C140.207 127.74 138.46 132.18 135.32 135.32L135.327 135.327C132.5 138.14 128.633 139.833 121.927 140.733C115.08 141.653 106.047 141.667 93.3333 141.667H66.6666C53.9533 141.667 44.9266 141.653 38.0666 140.733C31.3666 139.833 27.4999 138.14 24.6799 135.32L24.6733 135.327C21.8599 132.5 20.1666 128.633 19.2666 121.927C18.3466 115.08 18.3333 106.047 18.3333 93.3333V66.6667Z"/>
<path d="M39.9999 91.6666C37.2385 91.6666 34.9999 93.9052 34.9999 96.6666C34.9999 99.4281 37.2385 101.667 39.9999 101.667H93.3332C96.0946 101.667 98.3332 99.4281 98.3332 96.6666C98.3332 93.9052 96.0946 91.6666 93.3332 91.6666H39.9999Z"/>
<path d="M39.9999 115C37.2385 115 34.9999 117.239 34.9999 120C34.9999 122.761 37.2385 125 39.9999 125H76.6665C79.428 125 81.6665 122.761 81.6665 120C81.6665 117.239 79.428 115 76.6665 115H39.9999Z"/>
</svg>
