<svg width="160" height="161" viewBox="0 0 160 161" xmlns="http://www.w3.org/2000/svg">
<path d="M106.805 87.8454C106.523 87.2026 106.116 86.6227 105.607 86.14C104.613 85.1984 103.291 84.6817 101.923 84.7001C100.554 84.7184 99.2462 85.2703 98.2782 86.2382C97.3103 87.2062 96.7584 88.5137 96.74 89.8825C96.7217 91.2513 97.2383 92.5731 98.18 93.5667C98.6627 94.076 99.2426 94.4835 99.8854 94.765C100.528 95.0465 101.221 95.1964 101.923 95.2058C102.624 95.2152 103.321 95.0839 103.971 94.8197C104.621 94.5555 105.211 94.1638 105.708 93.6676C106.204 93.1714 106.596 92.5808 106.86 91.9307C107.124 91.2806 107.255 90.5842 107.246 89.8825C107.236 89.1808 107.086 88.4882 106.805 87.8454Z" />
<path d="M79.1563 60.255C79.7935 60.5189 80.3724 60.9057 80.86 61.3934C81.8448 62.3782 82.3981 63.7139 82.3981 65.1067C82.3981 66.4995 81.8448 67.8352 80.86 68.82C79.8752 69.8049 78.5394 70.3581 77.1467 70.3581C75.7539 70.3581 74.4182 69.8049 73.4333 68.82C72.9457 68.3324 72.5589 67.7535 72.295 67.1163C72.0311 66.4792 71.8952 65.7963 71.8952 65.1067C71.8952 64.4171 72.0311 63.7342 72.295 63.097C72.5589 62.4599 72.9457 61.881 73.4333 61.3934C73.921 60.9057 74.4999 60.5189 75.137 60.255C75.7742 59.9911 76.457 59.8552 77.1467 59.8552C77.8363 59.8552 78.5192 59.9911 79.1563 60.255Z"/>
<path d="M112.938 106.41C112.674 105.773 112.288 105.194 111.8 104.707C110.815 103.722 109.479 103.169 108.087 103.169C106.694 103.169 105.358 103.722 104.373 104.707C103.389 105.692 102.835 107.027 102.835 108.42C102.835 109.813 103.389 111.149 104.373 112.133C104.861 112.621 105.44 113.008 106.077 113.272C106.714 113.536 107.397 113.671 108.087 113.671C108.776 113.671 109.459 113.536 110.096 113.272C110.733 113.008 111.312 112.621 111.8 112.133C112.288 111.646 112.674 111.067 112.938 110.43C113.202 109.793 113.338 109.11 113.338 108.42C113.338 107.73 113.202 107.048 112.938 106.41Z"/>
<path d="M60.5935 54.0609C61.2316 54.3249 61.8115 54.7119 62.3 55.2C63.2866 56.1857 63.8412 57.523 63.8419 58.9177C63.8425 60.3123 63.2891 61.6501 62.3033 62.6367C61.3176 63.6233 59.9803 64.1779 58.5857 64.1785C57.1911 64.1792 55.8533 63.6257 54.8667 62.64C54.3782 62.1519 53.9906 61.5724 53.726 60.9345C53.4615 60.2967 53.3251 59.6129 53.3248 58.9224C53.3245 58.2318 53.4602 57.548 53.7242 56.9099C53.9882 56.2717 54.3753 55.6919 54.8633 55.2034C55.3514 54.7148 55.9309 54.3272 56.5688 54.0627C57.2067 53.7981 57.8904 53.6618 58.581 53.6615C59.2715 53.6612 59.9554 53.7969 60.5935 54.0609Z"/>
<path d="M88.5858 83.6643C88.5851 82.2722 88.0315 80.9373 87.0467 79.9534C86.0618 78.9694 84.7265 78.417 83.3343 78.4176C81.9422 78.4182 80.6073 78.9718 79.6233 79.9567C78.6394 80.9415 78.087 82.2769 78.0876 83.6691C78.0882 85.0612 78.6418 86.3961 79.6267 87.38C80.6115 88.364 81.9469 88.9164 83.339 88.9158C84.7312 88.9152 86.0661 88.3615 87.05 87.3767C88.034 86.3919 88.5864 85.0565 88.5858 83.6643Z"/>
<path d="M94.4608 100.226C94.1707 99.5803 93.7532 99.0001 93.2333 98.52C92.2366 97.5996 90.9225 97.1004 89.566 97.127C88.2095 97.1537 86.916 97.7041 85.9562 98.663C84.9964 99.6219 84.4449 100.915 84.417 102.271C84.3891 103.628 84.8871 104.942 85.8067 105.94C86.2863 106.46 86.8661 106.878 87.5113 107.169C88.1565 107.46 88.8538 107.617 89.5613 107.632C90.2688 107.646 90.9719 107.518 91.6285 107.254C92.2851 106.99 92.8816 106.596 93.3822 106.096C93.8828 105.596 94.2772 104.999 94.5417 104.343C94.8063 103.687 94.9354 102.984 94.9215 102.276C94.9076 101.569 94.7509 100.871 94.4608 100.226Z"/>
<path d="M66.783 72.6283C67.4201 72.8922 67.999 73.2791 68.4867 73.7667C69.4715 74.7515 70.0248 76.0872 70.0248 77.48C70.0248 78.8728 69.4715 80.2085 68.4867 81.1934C67.5018 82.1782 66.1661 82.7315 64.7733 82.7315C63.3806 82.7315 62.0449 82.1782 61.06 81.1934C60.5724 80.7057 60.1856 80.1268 59.9216 79.4897C59.6577 78.8525 59.5219 78.1696 59.5219 77.48C59.5219 76.7904 59.6577 76.1075 59.9216 75.4704C60.1856 74.8332 60.5724 74.2543 61.06 73.7667C61.5477 73.2791 62.1266 72.8922 62.7637 72.6283C63.4008 72.3644 64.0837 72.2286 64.7733 72.2286C65.463 72.2286 66.1459 72.3644 66.783 72.6283Z"/>
<path fill-rule="evenodd" clip-rule="evenodd" d="M17.8845 18.2178C24.0009 12.1013 32.2967 8.66515 40.9467 8.66515C49.5967 8.66515 57.8924 12.1013 64.0089 18.2178L80 34.209L95.9911 18.2178C99.0197 15.1893 102.615 12.7869 106.572 11.1478C110.529 9.50876 114.77 8.66515 119.053 8.66515C123.336 8.66515 127.577 9.50876 131.535 11.1478C135.492 12.7869 139.087 15.1892 142.116 18.2178C145.144 21.2464 147.546 24.8418 149.186 28.7989C150.825 32.7559 151.668 36.997 151.668 41.28C151.668 45.5631 150.825 49.8042 149.186 53.7612C147.546 57.7182 145.144 61.3137 142.116 64.3422L126.125 80.3273L142.122 96.3245C145.151 99.3531 147.553 102.949 149.192 106.906C150.831 110.863 151.675 115.104 151.675 119.387C151.675 123.67 150.831 127.911 149.192 131.868C147.553 135.825 145.151 139.42 142.122 142.449C139.094 145.477 135.498 147.88 131.541 149.519C127.584 151.158 123.343 152.002 119.06 152.002C110.41 152.002 102.114 148.565 95.9979 142.449L80.0026 126.455L64.0096 142.448C60.5111 145.948 56.2614 148.606 51.5836 150.221C46.9056 151.835 41.9215 152.364 37.0089 151.767C32.0963 151.17 27.3839 149.462 23.2289 146.774C19.0738 144.086 15.585 140.488 13.0266 136.251C11.5991 133.888 12.3581 130.814 14.7219 129.387C17.0857 127.959 20.1592 128.718 21.5867 131.082C23.3606 134.019 25.7797 136.514 28.6607 138.378C31.5417 140.242 34.8092 141.426 38.2155 141.84C41.6218 142.254 45.0776 141.887 48.3213 140.768C51.5649 139.648 54.5112 137.805 56.9371 135.379L72.9313 119.384L40.9476 87.4034L24.9555 103.396C23.1948 105.156 21.7864 107.138 20.7275 109.245C19.4874 111.713 16.482 112.708 14.0147 111.468C11.5473 110.227 10.5524 107.222 11.7925 104.755C13.3203 101.715 15.3519 98.857 17.8845 96.3245L33.8763 80.3327L17.8846 64.3424C11.7681 58.2259 8.33179 49.93 8.33179 41.28C8.33179 32.63 11.768 24.3343 17.8845 18.2178ZM86.4645 54.8156L56.9378 25.2889C52.6967 21.0478 46.9445 18.6651 40.9467 18.6651C34.9488 18.6651 29.1966 21.0478 24.9555 25.2889C20.7144 29.53 18.3318 35.2822 18.3318 41.28C18.3318 47.2778 20.7144 53.0299 24.9554 57.271L103.069 135.378C107.31 139.619 113.062 142.002 119.06 142.002C122.03 142.002 124.971 141.417 127.714 140.28C130.458 139.144 132.951 137.478 135.051 135.378C137.151 133.278 138.817 130.785 139.953 128.041C141.09 125.297 141.675 122.357 141.675 119.387C141.675 116.417 141.09 113.476 139.953 110.732C138.817 107.989 137.151 105.496 135.051 103.396L115.737 84.0812C115.66 84.013 115.584 83.942 115.511 83.8683C115.437 83.795 115.367 83.7199 115.299 83.6433L105.998 74.3422C104.045 72.3896 104.045 69.2238 105.998 67.2712C107.95 65.3185 111.116 65.3185 113.069 67.2712L119.054 73.2562L135.044 57.2712C137.144 55.1712 138.81 52.6781 139.947 49.9344C141.083 47.1906 141.668 44.2499 141.668 41.28C141.668 38.3102 141.083 35.3694 139.947 32.6257C138.81 29.8819 137.144 27.3889 135.044 25.2889C132.944 23.1889 130.451 21.5231 127.708 20.3866C124.964 19.2501 122.023 18.6651 119.053 18.6651C116.083 18.6651 113.143 19.2501 110.399 20.3866C107.655 21.5231 105.162 23.1889 103.062 25.2889L87.0711 41.28L93.5355 47.7445C95.4882 49.6971 95.4882 52.8629 93.5355 54.8156C91.5829 56.7682 88.4171 56.7682 86.4645 54.8156Z"/>
</svg>
