<svg width="40" height="40" viewBox="0 0 40 40" fill="none" xmlns="http://www.w3.org/2000/svg">
<g id="CreateTodoButton">
<path id="Vector" d="M15.007 20C15.007 19.8011 15.086 19.6103 15.2267 19.4697C15.3673 19.329 15.5581 19.25 15.757 19.25H19.25V15.757C19.25 15.5581 19.329 15.3673 19.4697 15.2267C19.6103 15.086 19.8011 15.007 20 15.007C20.1989 15.007 20.3897 15.086 20.5303 15.2267C20.671 15.3673 20.75 15.5581 20.75 15.757V19.25H24.243C24.4419 19.25 24.6327 19.329 24.7733 19.4697C24.914 19.6103 24.993 19.8011 24.993 20C24.993 20.1989 24.914 20.3897 24.7733 20.5303C24.6327 20.671 24.4419 20.75 24.243 20.75H20.75V24.243C20.75 24.4419 20.671 24.6327 20.5303 24.7733C20.3897 24.914 20.1989 24.993 20 24.993C19.8011 24.993 19.6103 24.914 19.4697 24.7733C19.329 24.6327 19.25 24.4419 19.25 24.243V20.75H15.757C15.5581 20.75 15.3673 20.671 15.2267 20.5303C15.086 20.3897 15.007 20.1989 15.007 20Z" fill="#EB7272"/>
<path id="Vector_2" fill-rule="evenodd" clip-rule="evenodd" d="M15.317 11.769C18.4295 11.4239 21.5705 11.4239 24.683 11.769C26.51 11.973 27.985 13.412 28.199 15.249C28.569 18.406 28.569 21.595 28.199 24.752C27.984 26.589 26.509 28.027 24.683 28.232C21.5705 28.577 18.4295 28.577 15.317 28.232C13.49 28.027 12.015 26.589 11.801 24.752C11.4318 21.5951 11.4318 18.4059 11.801 15.249C12.015 13.412 13.491 11.973 15.317 11.769ZM24.517 13.259C21.5149 12.9262 18.4851 12.9262 15.483 13.259C14.9272 13.3206 14.4085 13.5678 14.0106 13.9607C13.6127 14.3535 13.3588 14.8691 13.29 15.424C12.9343 18.4649 12.9343 21.537 13.29 24.578C13.359 25.1327 13.613 25.648 14.0109 26.0406C14.4088 26.4333 14.9274 26.6804 15.483 26.742C18.46 27.074 21.54 27.074 24.517 26.742C25.0724 26.6802 25.5908 26.433 25.9885 26.0404C26.3862 25.6477 26.64 25.1326 26.709 24.578C27.0647 21.537 27.0647 18.4649 26.709 15.424C26.6398 14.8696 26.3859 14.3546 25.9882 13.9622C25.5906 13.5698 25.0723 13.3228 24.517 13.261" fill="#EB7272"/>
</g>
</svg>
